<svg width="25" height="24" viewBox="0 0 25 24" fill="none" xmlns="http://www.w3.org/2000/svg">
<path d="M16.1161 5C18.6 5 20.0903 6.90001 20.0903 9.20001C20.0903 10.4 19.4942 11.5 18.7987 12.3C17.6064 13.5 12.1419 18 12.1419 18C12.1419 18 6.67747 13.5 5.48521 12.3C4.69037 11.5 4.19355 10.4 4.19355 9.20001C4.19355 6.90001 5.68387 5 8.16774 5C9.85677 5 11.4465 6.6 12.1419 8C12.8374 6.6 14.4271 5 16.1161 5ZM16.1161 2C14.6258 2 13.2348 2.59999 12.1419 3.39999C11.049 2.49999 9.65806 2 8.16774 2C4.19355 2 1.21291 5.10001 1.21291 9.20001C1.21291 11.1 2.0077 12.9 3.39866 14.4C4.78963 15.9 12.1419 21.9 12.1419 21.9C12.1419 21.9 19.4942 15.9 20.8852 14.4C22.2761 12.9 23.071 11.1 23.071 9.20001C23.071 5.10001 20.0903 2 16.1161 2Z" fill="white"/>
</svg>
